<?xml version="1.0" encoding="UTF-8"?>
<svg width="190px" height="171px" viewBox="0 0 190 171" version="1.1" xmlns="http://www.w3.org/2000/svg" xmlns:xlink="http://www.w3.org/1999/xlink">
    <title>Group 11</title>
    <g id="Page-1" stroke="none" stroke-width="1" fill="none" fill-rule="evenodd">
        <g id="Space-/-Edit" transform="translate(-1023.000000, -877.000000)">
            <g id="Group-11" transform="translate(1023.000000, 877.000000)">
                <rect id="Rectangle-1" fill="#F7F8F9" x="0" y="0" width="190" height="171" rx="3"></rect>
                <g id="Group-10" transform="translate(77.000000, 18.000000)" fill="#FFFFFF" stroke="#CFD8DC" stroke-width="3">
                    <rect id="Rectangle-8" x="2.5" y="50.5" width="35" height="35" rx="3"></rect>
                    <rect id="Rectangle-8-Copy-3" x="1.5" y="1.5" width="35" height="35" rx="3"></rect>
                    <rect id="Rectangle-8-Copy" x="50.5" y="50.5" width="35" height="35" rx="3"></rect>
                    <rect id="Rectangle-8-Copy-4" x="49.5" y="1.5" width="35" height="35" rx="3"></rect>
                    <rect id="Rectangle-8" x="2.5" y="97.5" width="35" height="35" rx="3"></rect>
                    <rect id="Rectangle-8-Copy-2" x="50.5" y="97.5" width="35" height="35" rx="3"></rect>
                </g>
                <g id="Group-8-Copy-2" transform="translate(26.000000, 18.000000)" fill="#CFD8DC">
                    <g id="Group-7">
                        <rect id="Rectangle-11" opacity="0.502929688" x="10" y="10" width="20" height="3"></rect>
                        <rect id="Rectangle-11-Copy" x="0" y="0" width="30" height="3"></rect>
                        <rect id="Rectangle-11-Copy-2" x="0" y="65" width="30" height="3"></rect>
                        <rect id="Rectangle-11" opacity="0.502929688" x="0" y="10" width="4" height="3"></rect>
                        <rect id="Rectangle-11" opacity="0.502929688" x="0" y="20" width="4" height="3"></rect>
                        <rect id="Rectangle-12" opacity="0.502929688" x="0" y="30" width="4" height="3"></rect>
                        <rect id="Rectangle-13" opacity="0.502929688" x="0" y="40" width="4" height="3"></rect>
                        <rect id="Rectangle-14" opacity="0.502929688" x="0" y="50" width="4" height="3"></rect>
                        <rect id="Rectangle-4" opacity="0.502929688" x="10" y="20" width="20" height="3"></rect>
                        <rect id="Rectangle-6" opacity="0.502929688" x="10" y="30" width="20" height="3"></rect>
                        <rect id="Rectangle-6" opacity="0.502929688" x="10" y="40" width="20" height="3"></rect>
                        <rect id="Rectangle-6" opacity="0.502929688" x="10" y="50" width="20" height="3"></rect>
                        <rect id="Rectangle-11" opacity="0.502022879" x="10" y="75" width="20" height="3"></rect>
                        <rect id="Rectangle-11" opacity="0.502022879" x="0" y="75" width="4" height="3"></rect>
                        <rect id="Rectangle-11" opacity="0.502022879" x="0" y="85" width="4" height="3"></rect>
                        <rect id="Rectangle-12" opacity="0.502022879" x="0" y="95" width="4" height="3"></rect>
                        <rect id="Rectangle-13" opacity="0.502022879" x="0" y="105" width="4" height="3"></rect>
                        <rect id="Rectangle-14" opacity="0.502022879" x="0" y="115" width="4" height="3"></rect>
                        <rect id="Rectangle-4" opacity="0.502022879" x="10" y="85" width="20" height="3"></rect>
                        <rect id="Rectangle-6" opacity="0.502022879" x="10" y="95" width="20" height="3"></rect>
                        <rect id="Rectangle-6" opacity="0.502022879" x="10" y="105" width="20" height="3"></rect>
                        <rect id="Rectangle-6" opacity="0.502022879" x="10" y="115" width="20" height="3"></rect>
                    </g>
                </g>
            </g>
        </g>
    </g>
</svg>